<?xml version="1.0" encoding="UTF-8"?>
<svg version="1.1" xmlns="http://www.w3.org/2000/svg" width="512" height="512">
<path d="M0 0 C1.01201477 0.00054382 2.02402954 0.00108765 3.06671143 0.00164795 C19.59530572 0.04238044 35.52913999 0.94575778 51.75 4.375 C52.79188477 4.59462402 53.83376953 4.81424805 54.90722656 5.04052734 C90.07327522 12.71104706 122.52804152 27.4282864 151.75 48.375 C154.45731063 50.61580273 154.45731063 50.61580273 156.9609375 50.2421875 C160.6833377 49.08480256 163.94173059 47.32542689 167.375 45.5 C176.95305274 40.62122669 185.14551491 38.15689388 195.9375 37.9375 C196.68628418 37.91494141 197.43506836 37.89238281 198.20654297 37.86914062 C203.80952611 37.89388332 208.10432685 39.19532167 212.75 42.375 C214.80859375 44.59375 214.80859375 44.59375 216.1875 46.875 C216.66058594 47.6278125 217.13367188 48.380625 217.62109375 49.15625 C222.3229336 58.39723628 219.89969105 69.9642036 217.16796875 79.44140625 C215.19845348 85.27016674 212.33926321 90.6893763 209.45703125 96.109375 C207.70005326 99.25945281 207.70005326 99.25945281 206.75 102.375 C208.33697901 105.13629507 208.33697901 105.13629507 210.625 108.125 C215.78175898 115.29900632 220.38332026 122.69648195 224.75 130.375 C225.35545654 131.43799316 225.35545654 131.43799316 225.97314453 132.52246094 C240.6913495 158.66898685 250.38957861 187.68915119 254.75 217.375 C254.92732666 218.57962891 255.10465332 219.78425781 255.28735352 221.02539062 C256.886325 232.68267354 257.1084053 244.24686098 257.0625 256 C257.05976578 257.45483292 257.05976578 257.45483292 257.05697632 258.9390564 C257.01158309 273.29056055 256.5062347 287.25442918 253.75 301.375 C253.58902832 302.27202637 253.42805664 303.16905273 253.26220703 304.09326172 C244.45221851 352.78093124 221.00893453 397.80505908 186.75 433.375 C186.11787598 434.03435547 185.48575195 434.69371094 184.83447266 435.37304688 C175.69002521 444.86130305 166.39265991 453.6012044 155.75 461.375 C154.59894983 462.23306152 153.44790823 463.09113451 152.296875 463.94921875 C144.10724019 469.98677396 135.60461724 475.36957302 126.75 480.375 C126.04278809 480.7771875 125.33557617 481.179375 124.60693359 481.59375 C98.45939144 496.31504051 69.43833558 506.01421333 39.75 510.375 C38.54537109 510.55232666 37.34074219 510.72965332 36.09960938 510.91235352 C24.44232646 512.511325 12.87813902 512.7334053 1.125 512.6875 C-0.32983292 512.68476578 -0.32983292 512.68476578 -1.8140564 512.68197632 C-16.16556055 512.63658309 -30.12942918 512.1312347 -44.25 509.375 C-45.14702637 509.21402832 -46.04405273 509.05305664 -46.96826172 508.88720703 C-90.57311969 500.99694853 -131.70990471 481.30735057 -165.25 452.375 C-165.99507813 451.74078125 -166.74015625 451.1065625 -167.5078125 450.453125 C-181.01279833 438.64198485 -193.68418743 425.89139772 -204.25 411.375 C-205.10649066 410.22505169 -205.96326433 409.07531411 -206.8203125 407.92578125 C-212.86034209 399.73565742 -218.24367614 391.23120382 -223.25 382.375 C-223.6521875 381.66778809 -224.054375 380.96057617 -224.46875 380.23193359 C-239.1896967 354.08500209 -248.89065258 325.06305577 -253.25 295.375 C-253.42660156 294.17254639 -253.60320312 292.97009277 -253.78515625 291.73120117 C-255.3891435 280.01474155 -255.64963344 268.37597836 -255.625 256.5625 C-255.62445618 255.57665924 -255.62391235 254.59081848 -255.62335205 253.57510376 C-255.52508287 214.68684537 -246.61854183 178.66984823 -230.22851562 143.50537109 C-228.84188517 140.48647455 -227.54131673 137.43574757 -226.25 134.375 C-227.57 133.385 -228.89 132.395 -230.25 131.375 C-229.601521 130.75794189 -229.601521 130.75794189 -228.93994141 130.12841797 C-220.56500057 122.10493547 -212.90887782 114.16127485 -206.40234375 104.546875 C-192.70834703 84.36624825 -173.90370051 65.73079562 -154.25 51.375 C-153.09894983 50.51693848 -151.94790823 49.65886549 -150.796875 48.80078125 C-142.60724019 42.76322604 -134.10461724 37.38042698 -125.25 32.375 C-124.54278809 31.9728125 -123.83557617 31.570625 -123.10693359 31.15625 C-96.90419713 16.40388463 -67.96369203 6.86864194 -38.25 2.375 C-37.12754883 2.19839844 -36.00509766 2.02179687 -34.84863281 1.83984375 C-23.23552257 0.1829414 -11.71820055 -0.02373513 0 0 Z " fill="#EDEDED" transform="translate(255.25,-0.375)"/>
<path d="M0 0 C5.7928921 1.61706348 10.72437624 4.45830895 15.9375 7.375 C23.73978411 11.68871264 31.58150239 15.90352608 39.5 20 C46.81771488 23.79309932 54.08896514 27.65551109 61.3125 31.625 C70.70102248 36.78152911 80.15364778 41.81042695 89.625 46.8125 C101.27595543 52.9661974 112.90844671 59.15148334 124.51757812 65.38378906 C133.37336818 70.13536802 142.24668226 74.85318907 151.125 79.5625 C165.11490373 86.98352205 179.06790343 94.47094729 193 102 C188.89608887 107.7349894 184.44291685 112.91602558 179.5625 118 C174.57579368 123.22659905 169.71318962 128.5247641 165 134 C164.51700439 134.56090332 164.03400879 135.12180664 163.53637695 135.69970703 C162.14667771 137.31845609 160.76027445 138.93996328 159.375 140.5625 C156.17633321 144.30708208 152.96956958 148.04320211 149.72265625 151.74609375 C141.56248073 161.06074796 133.84980559 170.64049711 126.33984375 180.484375 C113.30398827 197.56533724 113.30398827 197.56533724 109 199 C106.71221121 199.03281032 104.42333019 199.00057681 102.13623047 198.93554688 C100.69540389 198.89945365 99.25455569 198.86421612 97.81369019 198.82971191 C96.66738443 198.8008062 96.66738443 198.8008062 95.49792099 198.77131653 C90.5624083 198.66234055 85.6256794 198.63239994 80.68920708 198.59247589 C76.36849694 198.55317845 72.05263757 198.48379594 67.73388672 198.34521484 C45.61113368 196.87105402 45.61113368 196.87105402 26.38479614 205.8939209 C21.5693811 211.00700638 17.33674388 215.68201608 17 223 C17.81557373 223.2489502 18.63114746 223.49790039 19.47143555 223.75439453 C23.61580018 225.21738134 27.49888328 227.02902378 31.45703125 228.9296875 C32.26956863 229.31631561 33.08210602 229.70294373 33.91926575 230.10128784 C36.55221255 231.3553196 39.18260395 232.61458404 41.8125 233.875 C44.52826026 235.17501531 47.24413214 236.474797 49.96008301 237.77441406 C51.76296784 238.63721104 53.56562157 239.50049108 55.36804199 240.36425781 C60.55552394 242.84632034 65.75974281 245.28549834 70.98828125 247.6796875 C72.12998779 248.20836426 73.27169434 248.73704102 74.44799805 249.28173828 C76.4966522 250.22853042 78.55116747 251.1627905 80.61254883 252.08154297 C91.45819541 257.1413624 95.14712645 264.58128403 100.0625 275.1875 C100.61615234 276.35990234 101.16980469 277.53230469 101.74023438 278.74023438 C103.20840793 281.85150151 104.66225817 284.9692327 106.1116333 288.08929443 C107.00014923 290.00032096 107.89186013 291.90982287 108.78466797 293.81884766 C112.06813914 300.84051462 115.33974526 307.86755085 118.578125 314.91015625 C119.54155298 317.00375936 120.51047764 319.0948402 121.484375 321.18359375 C121.94328125 322.17488281 122.4021875 323.16617187 122.875 324.1875 C123.28492188 325.06792969 123.69484375 325.94835937 124.1171875 326.85546875 C125 329 125 329 125 331 C129.33218284 331.72873348 131.90035099 330.76618862 135.47509766 328.4621582 C143.07718465 322.6174028 148.94415494 316.36221712 150.27267075 306.61359978 C151.2295071 296.40826669 150.84242863 286.12445615 150.46636963 275.89764404 C150.25422041 269.60501756 150.18463408 263.30892299 150.10269165 257.01350403 C150.05915101 253.67238872 149.97440548 250.33637686 149.85604858 246.99711609 C149.81702548 245.47879683 149.77824474 243.96047132 149.73974609 242.44213867 C149.70643692 241.75903625 149.67312775 241.07593384 149.6388092 240.37213135 C149.5720218 236.85524532 149.92250319 235.11785079 151.87661743 232.14619446 C154.04769082 229.95179683 156.20228262 228.24067647 158.75 226.5 C165.81840266 221.50108956 172.46261687 216.01664487 179.14746094 210.52050781 C180.75242972 209.20319817 182.36391357 207.89383387 183.9765625 206.5859375 C194.0850535 198.38583419 203.93856172 189.90677226 213.56640625 181.1484375 C216.19246999 178.83008267 218.89486806 176.63209166 221.625 174.4375 C225.70243799 171.13999389 229.43002648 167.68320471 233.08203125 163.92578125 C240.95151515 156.02424242 240.95151515 156.02424242 245 154 C245.45213867 154.85416504 245.90427734 155.70833008 246.37011719 156.58837891 C248.49506197 160.60147869 250.62204707 164.61349456 252.75 168.625 C253.13715179 169.354841 253.52430359 170.08468201 253.92318726 170.8366394 C258.66680275 179.77470271 263.44098009 188.69328285 268.3125 197.5625 C272.82574663 205.78163381 277.18681429 214.07172736 281.5012207 222.39672852 C284.92018461 228.97679995 288.42969656 235.50093201 292 242 C296.09431743 249.4529372 300.08732583 256.95012937 304 264.5 C307.79367424 271.81742102 311.65537726 279.0890214 315.625 286.3125 C321.73810655 297.438623 327.66979395 308.65869183 333.59423828 319.88598633 C333.96150024 320.58169235 334.32876221 321.27739838 334.70715332 321.9941864 C335.42962287 323.36313071 336.1515569 324.73235779 336.8729248 326.10188293 C338.59327155 329.36255691 340.32846415 332.61350118 342.09912109 335.84716797 C342.42744431 336.44843002 342.75576752 337.04969208 343.09403992 337.66917419 C343.98384173 339.2943513 344.8788234 340.91668935 345.77416992 342.53881836 C347 345 347 345 347 347 C347.66 347.33 348.32 347.66 349 348 C314.5755787 365.40582657 277.1536556 377.99878829 238.20703125 378.203125 C237.30649017 378.21013931 236.4059491 378.21715363 235.4781189 378.22438049 C232.58952774 378.24177902 229.70114163 378.2482324 226.8125 378.25 C225.82512848 378.25067474 224.83775696 378.25134949 223.82046509 378.25204468 C209.32911736 378.23629657 195.25979749 377.78341075 181 375 C180.10297363 374.83902832 179.20594727 374.67805664 178.28173828 374.51220703 C134.67688031 366.62194853 93.54009529 346.93235057 60 318 C59.25492187 317.36578125 58.50984375 316.7315625 57.7421875 316.078125 C44.23720167 304.26698485 31.56581257 291.51639772 21 277 C20.14350934 275.85005169 19.28673567 274.70031411 18.4296875 273.55078125 C12.38965791 265.36065742 7.00632386 256.85620382 2 248 C1.5978125 247.29278809 1.195625 246.58557617 0.78125 245.85693359 C-13.9396967 219.71000209 -23.64065258 190.68805577 -28 161 C-28.17660156 159.79754639 -28.35320313 158.59509277 -28.53515625 157.35620117 C-30.1391435 145.63974155 -30.39963344 134.00097836 -30.375 122.1875 C-30.37445618 121.20165924 -30.37391235 120.21581848 -30.37335205 119.20010376 C-30.26932055 78.03151172 -21.15101695 35.76097447 0 0 Z " fill="#0098E1" transform="translate(30,134)"/>
<path d="M0 0 C1.51802216 0.00081573 1.51802216 0.00081573 3.06671143 0.00164795 C19.59530572 0.04238044 35.52913999 0.94575778 51.75 4.375 C52.79188477 4.59462402 53.83376953 4.81424805 54.90722656 5.04052734 C89.96296339 12.68698553 122.71035355 27.3070212 151.75 48.375 C152.9565625 49.2103125 152.9565625 49.2103125 154.1875 50.0625 C154.703125 50.495625 155.21875 50.92875 155.75 51.375 C155.75 52.035 155.75 52.695 155.75 53.375 C153.75760793 54.86085171 151.75324451 56.24774607 149.6875 57.625 C136.56471228 66.71720527 125.61160937 78.37901149 114.4465332 89.71459961 C113.69202881 90.47780518 112.93752441 91.24101074 112.16015625 92.02734375 C111.50152588 92.69757568 110.84289551 93.36780762 110.16430664 94.05834961 C108.23424478 95.91034243 106.27911771 97.63515956 104.24389648 99.36572266 C98.92244643 103.99186606 94.06021352 109.06546105 89.14810181 114.11569023 C86.19096688 117.15027434 83.2150482 120.16638128 80.2421875 123.18554688 C76.47874902 127.0090401 72.72132707 130.83788041 68.98535156 134.68823242 C65.94609932 137.81953358 62.88762397 140.93085798 59.81533813 144.02974129 C58.6535377 145.20878431 57.49892733 146.39495885 56.35189819 147.588377 C54.74884442 149.25434549 53.12236003 150.89358397 51.48828125 152.52905273 C50.57087158 153.4672435 49.65346191 154.40543427 48.70825195 155.37205505 C43.93700836 158.60252305 39.25879731 157.81186573 33.69702148 156.84350586 C32.65300926 156.66673309 32.65300926 156.66673309 31.58790588 156.48638916 C30.85635788 156.35552917 30.12480988 156.22466919 29.37109375 156.08984375 C28.18392006 155.88569855 28.18392006 155.88569855 26.97276306 155.6774292 C24.3764726 155.2290931 21.78201355 154.77099811 19.1875 154.3125 C17.3400849 153.99084175 15.4925899 153.66964214 13.64501953 153.34887695 C8.01149304 152.36799411 2.38051956 151.3729782 -3.25 150.375 C-4.47798309 150.15783325 -4.47798309 150.15783325 -5.73077393 149.9362793 C-22.26700012 147.01162641 -38.78881042 144.00813941 -55.30859375 140.9921875 C-59.9765078 140.14032493 -64.64448587 139.28881396 -69.3125 138.4375 C-70.48647339 138.22331421 -71.66044678 138.00912842 -72.86999512 137.78845215 C-89.69997975 134.72011035 -106.54252971 131.73690981 -123.40185547 128.83444214 C-140.96902442 125.8076821 -158.50207311 122.60628964 -176.02685547 119.34350586 C-194.93226795 114.17841496 -194.93226795 114.17841496 -213.25 115.375 C-201.92798395 90.41786785 -175.92536767 66.97685705 -154.25 51.375 C-153.10335128 50.52323199 -151.95753275 49.67034537 -150.8125 48.81640625 C-142.62089798 42.76896867 -134.11096602 37.38401588 -125.25 32.375 C-124.54278809 31.9728125 -123.83557617 31.570625 -123.10693359 31.15625 C-96.90419713 16.40388463 -67.96369203 6.86864194 -38.25 2.375 C-37.12754883 2.19839844 -36.00509766 2.02179687 -34.84863281 1.83984375 C-23.23552257 0.1829414 -11.71820055 -0.02373513 0 0 Z " fill="#0098E1" transform="translate(255.25,-0.375)"/>
<path d="M0 0 C4.14320908 3.84567162 7.16485848 7.92423387 10.1875 12.6875 C10.6623584 13.43153076 11.1372168 14.17556152 11.62646484 14.94213867 C30.11351451 44.23733238 42.86904124 75.83478735 49 110 C49.24339111 111.24692627 49.24339111 111.24692627 49.49169922 112.51904297 C54.78765528 140.24493058 54.40049548 172.33251622 49 200 C48.83902832 200.89702637 48.67805664 201.79405273 48.51220703 202.71826172 C39.70221851 251.40593124 16.25893453 296.43005908 -18 332 C-18.94818604 332.9890332 -18.94818604 332.9890332 -19.91552734 333.99804688 C-32.00173538 346.53866661 -44.55447111 357.24760377 -59 367 C-61.08473561 363.43798043 -61.70167968 359.9555031 -62.41929626 355.91287231 C-62.54800112 355.19774251 -62.67670597 354.4826127 -62.80931097 353.7458123 C-63.23940397 351.34734736 -63.66056161 348.94740018 -64.08178711 346.54736328 C-64.38881855 344.82463705 -64.69639888 343.10200856 -65.00448608 341.37947083 C-65.84332482 336.68039618 -66.67441986 331.97998063 -67.5042007 327.27929926 C-68.38476538 322.29867451 -69.27243803 317.31931675 -70.15931702 312.33981323 C-71.85112441 302.83467385 -73.53654174 293.32841283 -75.21970326 283.82173908 C-77.09076313 273.25550013 -78.96870912 262.6904895 -80.84737849 252.12560129 C-83.21163178 238.82974167 -85.57451497 225.53364358 -87.92953491 212.23614502 C-88.10472841 211.2469709 -88.27992191 210.25779679 -88.4604243 209.2386477 C-88.81072092 207.26077475 -89.16101674 205.28290167 -89.51131177 203.30502844 C-89.68273025 202.33715226 -89.85414874 201.36927608 -90.03076172 200.37207031 C-90.20073189 199.41230742 -90.37070207 198.45254453 -90.54582286 197.46369791 C-92.71827371 185.19901606 -94.90343139 172.93670882 -97.10576475 160.67735791 C-97.89715908 156.26959414 -98.68607962 151.86138678 -99.47503787 147.45318639 C-100.07264272 144.11592907 -100.67279544 140.77917535 -101.27641106 137.44299698 C-101.91999678 133.88580659 -102.55749003 130.32757584 -103.19360352 126.76904297 C-103.3799769 125.74939327 -103.56635029 124.72974358 -103.75837135 123.6791954 C-104.21189765 121.12381243 -104.61047896 118.56569335 -105 116 C-105.20405457 114.96775299 -105.40810913 113.93550598 -105.61834717 112.87197876 C-104.52596607 107.79829932 -100.5473846 104.79794141 -96.9128418 101.27929688 C-96.05268967 100.42308746 -95.19253754 99.56687805 -94.30632019 98.6847229 C-92.43343325 96.8246363 -90.55606841 94.97098951 -88.66858482 93.12590027 C-85.67205635 90.19642238 -82.69716538 87.24559698 -79.72480774 84.29162598 C-75.00697228 79.60794862 -70.27536176 74.93847635 -65.53752691 70.27503824 C-57.09162086 61.96163484 -48.66154224 53.63227725 -40.24793941 45.28618288 C-37.30304278 42.36620049 -34.34972433 39.45509451 -31.3896938 36.55045938 C-19.71425613 25.08219518 -9.00777885 13.70992962 0 0 Z " fill="#0098E1" transform="translate(460,101)"/>
<path d="M0 0 C6.02956136 33.76554362 12.05912272 67.53108724 18.08868408 101.29663086 C18.28756706 102.41037394 18.48645003 103.52411701 18.69135976 104.67160988 C19.09139893 106.91183242 19.49143591 109.15205535 19.89147067 111.39227867 C20.88229338 116.94094118 21.87315364 122.48959698 22.86409378 128.03823853 C24.60901937 137.80893256 26.35370147 147.57966965 28.09690118 157.35067177 C29.0289445 162.57495816 29.96119219 167.79920806 30.89355469 173.0234375 C31.07261274 174.02676998 31.25167079 175.03010246 31.43615484 176.06383896 C33.60623839 188.22152208 35.78501906 200.37757913 37.97929645 212.53091908 C38.8166601 217.17090878 39.65145189 221.81136216 40.48685074 226.45170593 C41.11052038 229.90772003 41.7388167 233.36287023 42.36740112 236.81799316 C42.72840415 238.82197927 43.08919013 240.8260045 43.44970703 242.83007812 C43.61082096 243.7065097 43.77193489 244.58294128 43.93793106 245.4859314 C45.34877139 253.38289744 45.34877139 253.38289744 45 257 C43.42700195 258.56152344 43.42700195 258.56152344 41.23828125 259.859375 C40.44873047 260.33503906 39.65917969 260.81070312 38.84570312 261.30078125 C38.00974609 261.77902344 37.17378906 262.25726563 36.3125 262.75 C35.08756836 263.49056641 35.08756836 263.49056641 33.83789062 264.24609375 C29.85313235 266.60145694 26.61516838 268.26416773 22 269 C21.63874023 268.2972998 21.27748047 267.59459961 20.90527344 266.87060547 C14.79547241 255.00030032 8.68617848 243.13511574 2.25 231.4375 C-2.8681889 222.13392105 -7.85419835 212.76438393 -12.8125 203.375 C-18.36657052 192.85905551 -23.9374064 182.35315988 -29.5625 171.875 C-34.53678003 162.60841379 -39.48783235 153.33003638 -44.41763306 144.03973389 C-49.90869096 133.69176738 -55.40410759 123.34616899 -60.93017578 113.0168457 C-61.86207366 111.27417259 -62.79237631 109.53064672 -63.72265625 107.78710938 C-66.56455195 102.47627825 -69.43950873 97.19096374 -72.4140625 91.953125 C-73.19934326 90.5623877 -73.19934326 90.5623877 -74.00048828 89.14355469 C-74.96972369 87.43484727 -75.94920417 85.73189284 -76.94091797 84.03613281 C-77.36260254 83.29202148 -77.78428711 82.54791016 -78.21875 81.78125 C-78.58935547 81.14251953 -78.95996094 80.50378906 -79.34179688 79.84570312 C-80.20313322 77.4303831 -79.99656243 76.35214399 -79 74 C-77.43139648 72.33959961 -77.43139648 72.33959961 -75.43359375 70.71484375 C-71.16046165 67.14107238 -67.10481352 63.3938308 -63.0625 59.5625 C-61.57041554 58.15223473 -60.07822492 56.74208176 -58.5859375 55.33203125 C-57.82893555 54.61611816 -57.07193359 53.90020508 -56.29199219 53.16259766 C-54.04649734 51.04387233 -51.79415833 48.93271845 -49.5390625 46.82421875 C-42.16272218 39.92154309 -34.86824045 32.97357752 -27.80859375 25.74609375 C-25.64802725 23.63360662 -23.47383867 21.65558347 -21.1875 19.6875 C-16.76078305 15.8548469 -12.66255376 11.73897601 -8.5625 7.5625 C-7.14941047 6.12406358 -5.73417027 4.68773558 -4.31640625 3.25390625 C-3.70224854 2.62814697 -3.08809082 2.0023877 -2.45532227 1.35766602 C-1 0 -1 0 0 0 Z " fill="#D0D1D3" transform="translate(355,212)"/>
<path d="M0 0 C3.48343683 3.24556325 5.85110319 6.10525887 7.875 10.41015625 C8.37902344 11.46912109 8.88304687 12.52808594 9.40234375 13.61914062 C9.92957031 14.75544922 10.45679688 15.89175781 11 17.0625 C11.55816406 18.24392578 12.11632812 19.42535156 12.69140625 20.64257812 C14.17334429 23.78169181 15.64117526 26.9271816 17.10449219 30.07501221 C17.99704138 31.99364013 18.8925525 33.91085669 19.7890625 35.82763672 C23.07117272 42.84632312 26.34111449 49.87052856 29.578125 56.91015625 C30.54155298 59.00375936 31.51047764 61.0948402 32.484375 63.18359375 C33.17273438 64.67052734 33.17273438 64.67052734 33.875 66.1875 C34.28492188 67.06792969 34.69484375 67.94835937 35.1171875 68.85546875 C36 71 36 71 36 73 C36.58058167 73.25526459 37.16116333 73.51052917 37.75933838 73.77352905 C40.23148325 75.12670699 41.86632672 76.62568512 43.85058594 78.62353516 C44.59105164 79.36415192 45.33151733 80.10476868 46.09442139 80.86782837 C47.27744843 82.06633926 47.27744843 82.06633926 48.484375 83.2890625 C49.29996887 84.10748627 50.11556274 84.92591003 50.95587158 85.76913452 C53.55864562 88.38309973 56.15437762 91.00393505 58.75 93.625 C60.5138634 95.39889454 62.2781809 97.17233766 64.04296875 98.9453125 C68.36726136 103.29165142 72.6857933 107.64365081 77 112 C71.37293793 113.60806403 66.7714449 111.46062798 61.3125 109.75 C60.15927246 109.39010986 59.00604492 109.03021973 57.81787109 108.65942383 C19.27348243 96.24411203 -15.55726025 74.77657472 -44 46 C-42.51657 42.55323 -40.56949812 40.32656699 -37.91748047 37.69042969 C-36.65639969 36.4295755 -36.65639969 36.4295755 -35.36984253 35.14324951 C-34.46146637 34.24519592 -33.55309021 33.34714233 -32.6171875 32.421875 C-31.68778351 31.4953009 -30.75837952 30.56872681 -29.80081177 29.61407471 C-27.3359615 27.15684211 -24.86516334 24.70567639 -22.39306641 22.2557373 C-19.86909235 19.75226191 -17.35080612 17.24307937 -14.83203125 14.734375 C-9.89356403 9.81732475 -4.948788 4.90666212 0 0 Z " fill="#00A8F6" transform="translate(119,392)"/>
<path d="M0 0 C0.74110886 3.91244514 1.47116716 7.82677681 2.19116211 11.74316406 C2.43749934 13.07445403 2.6868196 14.4051957 2.93920898 15.73535156 C3.3020024 17.65021388 3.65309778 19.5672808 4.00390625 21.484375 C4.21861572 22.63647461 4.4333252 23.78857422 4.65454102 24.97558594 C5.05564227 28.48713526 4.97057396 30.73485092 2.78373623 33.58540726 C2.26845395 34.09792416 1.75317167 34.61044106 1.22227478 35.13848877 C0.63190933 35.73297821 0.04154388 36.32746765 -0.56671143 36.93997192 C-1.21766785 37.58014252 -1.86862427 38.22031311 -2.53930664 38.87988281 C-3.22220261 39.56321686 -3.90509857 40.2465509 -4.60868835 40.95059204 C-6.86880648 43.20861931 -9.13936701 45.45583363 -11.41015625 47.703125 C-12.97879687 49.26617075 -14.54677668 50.82987995 -16.11412048 52.39422607 C-20.24216225 56.5108106 -24.37913377 60.61830695 -28.51800537 64.72399902 C-32.73942052 68.91473249 -36.95236145 73.11396575 -41.16601562 77.3125 C-49.43572101 85.55002569 -57.71488141 93.77797878 -66 102 C-69.37283427 97.56323203 -72.03486179 92.86086125 -74.75 88 C-75.26949219 87.09765625 -75.78898437 86.1953125 -76.32421875 85.265625 C-76.81019531 84.39421875 -77.29617188 83.5228125 -77.796875 82.625 C-78.24385742 81.83351563 -78.69083984 81.04203125 -79.15136719 80.2265625 C-80 78 -80 78 -79.8605957 75.91625977 C-78.77517105 73.49938088 -77.48622574 72.38419067 -75.43359375 70.71484375 C-71.16046165 67.14107238 -67.10481352 63.3938308 -63.0625 59.5625 C-61.57041554 58.15223473 -60.07822492 56.74208176 -58.5859375 55.33203125 C-57.82893555 54.61611816 -57.07193359 53.90020508 -56.29199219 53.16259766 C-54.04649734 51.04387233 -51.79415833 48.93271845 -49.5390625 46.82421875 C-42.16272218 39.92154309 -34.86824045 32.97357752 -27.80859375 25.74609375 C-25.64802725 23.63360662 -23.47383867 21.65558347 -21.1875 19.6875 C-16.76078305 15.8548469 -12.66255376 11.73897601 -8.5625 7.5625 C-7.14941047 6.12406358 -5.73417027 4.68773558 -4.31640625 3.25390625 C-3.70224854 2.62814697 -3.08809082 2.0023877 -2.45532227 1.35766602 C-1 0 -1 0 0 0 Z " fill="#C1C2C2" transform="translate(355,212)"/>
</svg>
